{"title":"BBC Proms 2011_29 Mahler 2 (Simon Bolivar Symphony Orchestra)","uid":6592919,"size":5126420913,"categoryP":"video","categoryS":"music_videos","magnet":"?xt=urn:btih:275935b7fb752dfe498bc47b8de280aa9576f6fd&amp;dn=BBC+Proms+2011_29+Mahler+2+%28Simon+Bolivar+Symphony+Orchestra%29&amp;tr=udp%3A%2F%2Ftracker.openbittorrent.com%3A80&amp;tr=udp%3A%2F%2Fopen.demonii.com%3A1337&amp;tr=udp%3A%2F%2Ftracker.coppersurfer.tk%3A6969&amp;tr=udp%3A%2F%2Fexodus.desync.com%3A6969","seeders":2,"leechers":0,"uploader":"Hathor","files":4,"time":1312899404,"description":"Note: This torrent contains both a DVD ISO and an MP4 Video of the concert so I suggest you select whichever you prefer. The MP4@720p has the better video quality.\n\nBBC Proms 2011, Number 29\nRecorded 5 August\nBroadcast BBC2 6 August\nThanks to GringoLoco &amp; the BBC   \n\nMahler:\nSymphony No. 2 in C minor 'Resurrection' (85 mins)\n\nMiah Persson: soprano\nAnna Larsson: mezzo-soprano\nNational Youth Choir of Great Britain\nSimon BolÃƒÂ­var Symphony Orchestra\nGustavo Dudamel: conductor\n\nCommentary in English\nFixed English subtitles for vocals\n\n*******************************************************\n\nFormat: DVD ISO PAL\nRuntime: 1:42\n\nFormat                           : MPEG-PS\nOverall bit rate                 : 3 967 Kbps\n\nVideo\nID                               : 224 (0xE0)\nFormat                           : MPEG Video\nFormat version                   : Version 2\nFormat profile                   : Main@Main\nFormat settings, BVOP            : Yes\nFormat settings, Matrix          : Default\nBit rate mode                    : Variable\nBit rate                         : 3 633 Kbps\nNominal bit rate                 : 9 544 Kbps\nWidth                            : 720 pixels\nHeight                           : 576 pixels\nDisplay aspect ratio             : 16:9\nFrame rate                       : 25.000 fps\nStandard                         : PAL\nColor space                      : YUV\nChroma subsampling               : 4:2:0\nBit depth                        : 8 bits\nScan type                        : Interlaced\nScan order                       : Top Field First\nCompression mode                 : Lossy\nBits/(Pixel*Frame)               : 0.350\n\nAudio\nID                               : 192 (0xC0)\nFormat                           : MPEG Audio\nFormat version                   : Version 1\nFormat profile                   : Layer 2\nBit rate mode                    : Constant\nBit rate                         : 256 Kbps\nChannel(s)                       : 2 channels\nSampling rate                    : 48.0 KHz\nCompression mode                 : Lossy\n\n*******************************************************\n\nFormat: MP4 720p\nRuntime: 1:42\n\nFormat profile                   : Base Media\nCodec ID                         : isom\nFile size                        : 1.93 GiB\nDuration                         : 1h 42mn\nOverall bit rate                 : 2 709 Kbps\nWriting application              : Lavf52.93.0\n\nVideo\nID                               : 1\nFormat                           : AVC\nFormat/Info                      : Advanced Video Codec\nFormat profile                   : &lt;a class=&quot;__cf_email__&quot; href=&quot;/cdn-cgi/l/email-protection&quot; data-cfemail=&quot;a7efcec0cfe7eb938996&quot;&gt;[email&amp;#160;protected]&lt;/a&gt;&lt;script cf-hash='f9e31' type=&quot;text/javascript&quot;&gt;\n/* &lt;![CDATA[ */!function(){try{var t=&quot;currentScript&quot;in document?document.currentScript:function(){for(var t=document.getElementsByTagName(&quot;script&quot;),e=t.length;e--;)if(t[e].getAttribute(&quot;cf-hash&quot;))return t[e]}();if(t&amp;&amp;t.previousSibling){var e,r,n,i,c=t.previousSibling,a=c.getAttribute(&quot;data-cfemail&quot;);if(a){for(e=&quot;&quot;,r=parseInt(a.substr(0,2),16),n=2;a.length-n;n+=2)i=parseInt(a.substr(n,2),16)^r,e+=String.fromCharCode(i);e=document.createTextNode(e),c.parentNode.replaceChild(e,c)}}}catch(u){}}();/* ]]&gt; */&lt;/script&gt;\nFormat settings, CABAC           : Yes\nFormat settings, ReFrames        : 6 frames\nCodec ID                         : avc1\nCodec ID/Info                    : Advanced Video Coding\nDuration                         : 1h 42mn\nBit rate mode                    : Variable\nBit rate                         : 2 609 Kbps\nMaximum bit rate                 : 3 500 Kbps\nWidth                            : 1 280 pixels\nHeight                           : 720 pixels\nDisplay aspect ratio             : 16:9\nFrame rate mode                  : Constant\nFrame rate                       : 25.000 fps\nStandard                         : PAL\nColor space                      : YUV\nChroma subsampling               : 4:2:0\nBit depth                        : 8 bits\nScan type                        : Progressive\nBits/(Pixel*Frame)               : 0.113\nStream size                      : 1.86 GiB (96%)\n\nAudio\nID                               : 2\nFormat                           : AAC\nFormat/Info                      : Advanced Audio Codec\nFormat profile                   : HE-AAC / LC\nCodec ID                         : 40\nDuration                         : 1h 42mn\nBit rate mode                    : Variable\nBit rate                         : 96.0 Kbps\nChannel(s)                       : 2 channels\nChannel positions                : Front: L R\nSampling rate                    : 48.0 KHz / 24.0 KHz\nCompression mode                 : Lossy\nStream size                      : 69.2 MiB (3%)\n","torrent":{"xt":"urn:btih:275935b7fb752dfe498bc47b8de280aa9576f6fd","amp;dn":"BBC+Proms+2011_29+Mahler+2+%28Simon+Bolivar+Symphony+Orchestra%29","amp;tr":["udp%3A%2F%2Ftracker.openbittorrent.com%3A80","udp%3A%2F%2Fopen.demonii.com%3A1337","udp%3A%2F%2Ftracker.coppersurfer.tk%3A6969","udp%3A%2F%2Fexodus.desync.com%3A6969"],"infoHash":"275935b7fb752dfe498bc47b8de280aa9576f6fd","infoHashBuffer":{"type":"Buffer","data":[39,89,53,183,251,117,45,254,73,139,196,123,141,226,128,170,149,118,246,253]},"announce":[],"urlList":[]}}